<svg width="40" height="40" viewBox="0 0 40 40" fill="none" xmlns="http://www.w3.org/2000/svg">
<path d="M20.2 0C15.6631 0 11.9667 3.69646 11.9667 8.23333C11.9667 12.7702 15.6631 16.4667 20.2 16.4667C24.7369 16.4667 28.4333 12.7702 28.4333 8.23333C28.4333 3.69646 24.7369 0 20.2 0ZM20.2 1.73333C23.8001 1.73333 26.7 4.63321 26.7 8.23333C26.7 11.8334 23.8001 14.7333 20.2 14.7333C16.5998 14.7333 13.7 11.8334 13.7 8.23333C13.7 4.63321 16.5998 1.73333 20.2 1.73333ZM20.2 19.0667C15.2475 19.0667 10.7599 20.346 7.45729 22.4927C4.15468 24.6394 2 27.7213 2 31.2V38.1333C2.00002 38.3632 2.09134 38.5836 2.25387 38.7461C2.41639 38.9087 2.63682 39 2.86667 39H37.5333C37.7632 39 37.9836 38.9087 38.1461 38.7461C38.3086 38.5836 38.4 38.3632 38.4 38.1333V31.2C38.4 27.7213 36.2453 24.6394 32.9427 22.4927C29.6401 20.346 25.1525 19.0667 20.2 19.0667ZM20.2 20.8C24.8501 20.8 29.0314 22.0155 31.9948 23.9417C34.9582 25.8679 36.6666 28.4369 36.6666 31.2V37.2667H3.73333V31.2C3.73333 28.4369 5.44182 25.8679 8.4052 23.9417C11.3686 22.0155 15.5498 20.8 20.2 20.8Z" fill="white"/>
</svg>
